<svg width="80" height="106" viewBox="0 0 80 106" fill="none" xmlns="http://www.w3.org/2000/svg">
<path d="M80 22.8388V54.6176C80 67.2305 69.4457 77.4564 56.4276 77.4564H54.0433L41.8677 89.2454C41.3908 89.7074 40.7312 90 40 90C39.3245 90 38.7125 89.7613 38.2436 89.3609L38.037 89.1607L38.029 89.153L25.9567 77.4564H23.5645C10.5543 77.4564 0 67.2305 0 54.6176V22.8388C0 10.2259 10.5543 0 23.5724 0H56.4276C69.4457 0 80 10.2259 80 22.8388Z" fill="#FF0000"/>
<path fill-rule="evenodd" clip-rule="evenodd" d="M20 26.25V30H23.7486L30.4961 44.2312L27.9658 48.8062C26.5975 51.3187 28.3969 54.375 31.2458 54.375H53.7375V50.625H31.2458L33.3076 46.875H47.2711C48.6769 46.875 49.9139 46.1062 50.5512 44.9437L57.2612 32.775C57.9547 31.5375 57.055 30 55.6305 30H27.8908L26.129 26.25H20ZM31.2458 56.2501C29.184 56.2501 27.5159 57.9376 27.5159 60.0001C27.5159 62.0626 29.184 63.7501 31.2458 63.7501C33.3075 63.7501 34.9944 62.0626 34.9944 60.0001C34.9944 57.9376 33.3075 56.2501 31.2458 56.2501ZM46.2589 60.0001C46.2589 57.9376 47.9271 56.2501 49.9888 56.2501C52.0505 56.2501 53.7374 57.9376 53.7374 60.0001C53.7374 62.0626 52.0505 63.7501 49.9888 63.7501C47.9271 63.7501 46.2589 62.0626 46.2589 60.0001Z" fill="white"/>
<circle cx="40" cy="81" r="25" fill="#FF0000" fill-opacity="0.3"/>
</svg>
